<svg xmlns="http://www.w3.org/2000/svg" xmlns:xlink="http://www.w3.org/1999/xlink"><symbol id="basket-icon"><path d="M17.896 3.052a.586.586 0 0 0-.449-.233L6.282 2.364c-.32-.013-.588.22-.602.522-.014.3.233.555.552.568l10.41.424-2.047 6.031H5.487L3.84 1.447a.554.554 0 0 0-.357-.41L.79.038A.59.59 0 0 0 .04.347c-.116.28.03.597.326.707l2.397.89 1.674 8.61a.57.57 0 0 0 .568.447h.278l-.634 1.664a.433.433 0 0 0 .06.416.49.49 0 0 0 .393.193h.445c-.276.29-.445.671-.445 1.09 0 .903.777 1.637 1.732 1.637.956 0 1.733-.734 1.733-1.636 0-.42-.17-.802-.445-1.091H11.9c-.276.29-.445.671-.445 1.09 0 .903.777 1.637 1.732 1.637.956 0 1.733-.734 1.733-1.636 0-.42-.17-.802-.445-1.091h.541a.468.468 0 0 0 .481-.455.468.468 0 0 0-.481-.454h-9.23L6.307 11h8.71a.575.575 0 0 0 .55-.379l2.406-7.091a.52.52 0 0 0-.076-.478ZM6.834 15.092c-.424 0-.77-.327-.77-.728 0-.401.346-.727.77-.727.425 0 .77.326.77.727 0 .401-.345.727-.77.727Zm6.353 0c-.425 0-.77-.327-.77-.728 0-.401.345-.727.77-.727.425 0 .77.326.77.727 0 .401-.345.727-.77.727Z" fill="#1B1A17"/></symbol><symbol id="likes-icon"><path d="M19.969 5.771c-.278-2.765-2.438-4.77-5.142-4.77-1.802 0-3.451.877-4.38 2.285C9.527 1.86 7.947 1 6.173 1 3.47 1 1.31 3.006 1.032 5.77c-.022.123-.112.766.161 1.814.394 1.512 1.304 2.887 2.63 3.976l6.62 5.44 6.733-5.44c1.327-1.09 2.237-2.464 2.63-3.976.274-1.048.184-1.69.163-1.813Zm-.874 1.661c-.36 1.38-1.193 2.639-2.408 3.636l-6.24 5.042-6.132-5.041c-1.217-.999-2.05-2.256-2.41-3.637-.259-.992-.153-1.552-.152-1.556l.005-.033c.238-2.423 2.094-4.181 4.415-4.181 1.713 0 3.22.953 3.936 2.487l.337.723.336-.723c.704-1.51 2.292-2.487 4.045-2.487 2.32 0 4.178 1.759 4.42 4.212 0 .006.107.566-.152 1.558Z" fill="#1B1A17" stroke="#1B1A17" stroke-width=".75"/></symbol><symbol id="news-facebook-icon"><path d="M8.832.571c-3.136 0-5.284 1.73-5.284 4.906v2.737H0v3.713h3.548v9.522h4.24v-9.522h3.539l.531-3.713h-4.07v-2.37c0-1.075.332-1.808 2.037-1.808H12V.718C11.624.672 10.334.571 8.832.571Z" fill="#5C5C50"/></symbol><symbol id="news-instagram-icon"><path d="M6.657.673C2.986.673 0 3.64 0 7.283v9.558c0 3.644 2.986 6.608 6.657 6.608h9.686c3.671 0 6.657-2.964 6.657-6.608V7.283c0-3.644-2.986-6.61-6.657-6.61H6.657Zm0 1.958h9.686c2.613 0 4.686 2.058 4.686 4.652v9.558c0 2.593-2.073 4.65-4.686 4.65H6.657c-2.613 0-4.685-2.056-4.685-4.65V7.283c0-2.594 2.072-4.652 4.685-4.652ZM17.673 4.59c-.762 0-1.38.613-1.38 1.37 0 .756.618 1.368 1.38 1.368.762 0 1.379-.612 1.379-1.369 0-.756-.617-1.369-1.38-1.369ZM11.5 6.197c-3.251 0-5.907 2.637-5.907 5.864s2.656 5.864 5.907 5.864 5.909-2.637 5.909-5.864-2.658-5.864-5.909-5.864Zm0 1.958c2.185 0 3.937 1.737 3.937 3.906 0 2.17-1.752 3.906-3.937 3.906-2.185 0-3.935-1.737-3.935-3.906 0-2.17 1.75-3.906 3.935-3.906Z" fill="#5C5C50"/></symbol><symbol id="news-twitter-icon"><path d="m15.804 14.864-3.846-3.847A6.745 6.745 0 0 0 6.743 0a6.743 6.743 0 1 0 0 13.486 6.707 6.707 0 0 0 4.27-1.525l3.847 3.843a.666.666 0 0 0 .944-.94Zm-9.061-2.72a5.408 5.408 0 0 1-5.404-5.401 5.41 5.41 0 0 1 5.404-5.404 5.413 5.413 0 0 1 5.404 5.404 5.41 5.41 0 0 1-5.404 5.4Z" fill="#1B1A17"/></symbol><symbol id="ruble-icon" viewBox="0 0 8 10"><path d="M1.69.5h2.953a2.238 2.238 0 0 1 0 4.476H1.69V.5ZM1.539 0v10m-1.3-2.543h5" stroke="#444240"/></symbol><symbol id="ruble-preview-icon"><path d="M2.048.5h3.988a3.06 3.06 0 0 1 0 6.12H2.048V.5ZM2 6.5H0M2 0v13M.31 9.697h6.5" stroke="#1B1A17"/></symbol><symbol id="search-icon"><path d="m15.804 14.864-3.846-3.847A6.745 6.745 0 0 0 6.743 0a6.743 6.743 0 1 0 0 13.486 6.707 6.707 0 0 0 4.27-1.525l3.847 3.843a.666.666 0 0 0 .944-.94Zm-9.061-2.72a5.408 5.408 0 0 1-5.404-5.401 5.41 5.41 0 0 1 5.404-5.404 5.413 5.413 0 0 1 5.404 5.404 5.41 5.41 0 0 1-5.404 5.4Z" fill="#1B1A17"/></symbol><symbol id="slider-arrow-icon"><path d="M6 1 1 6l5 5" stroke="#1B1A17" stroke-width=".5"/></symbol><symbol id="slider-arrow-right-icon"><path d="m1 11 5-5-5-5" stroke="#1B1A17" stroke-width=".5"/></symbol><symbol id="twitter_icon"><path d="M22 2.39a9.354 9.354 0 0 1-2.592.679A4.368 4.368 0 0 0 21.392.683a9.283 9.283 0 0 1-2.866 1.046A4.607 4.607 0 0 0 15.232.367c-2.493 0-4.513 1.931-4.513 4.313 0 .338.04.667.117.982-3.751-.18-7.077-1.897-9.303-4.505a4.145 4.145 0 0 0-.611 2.167c0 1.497.796 2.816 2.008 3.59a4.65 4.65 0 0 1-2.045-.54v.055c0 2.09 1.555 3.832 3.62 4.228a4.71 4.71 0 0 1-2.038.074c.575 1.713 2.241 2.96 4.216 2.995a9.331 9.331 0 0 1-5.606 1.846A9.67 9.67 0 0 1 0 15.512a13.215 13.215 0 0 0 6.92 1.937c8.3 0 12.84-6.57 12.84-12.27 0-.187-.005-.372-.013-.557a8.974 8.974 0 0 0 2.252-2.233" fill="#5C5C50"/></symbol></svg>